# xmcd CD database file
#
# Track frame offsets:
#	150
#	23325
#	45412
#	58407
#	78282
#	100092
#	119785
#	135550
#	157800
#	179962
#	194700
#	208725
#	233775
#
# Disc length: 3429 seconds
#
# Revision: 6
# Processed by: cddbd v1.5.2PL0 Copyright (c) Steve Scherf et al.
# Submitted via: CDex 1.70beta3
#
DISCID=b50d630d
DTITLE=Various Artist - Image Vocal
DYEAR=2003
DGENRE=Easy Listening
TTITLE0=Crystal Kay/Eternal Memories
TTITLE1=Chara/大事をきずくもの
TTITLE2=PUSHIM/Only You
TTITLE3=clementine/悪女
TTITLE4=玲葉奈/風をあつめて
TTITLE5=wyolica/ありがとう
TTITLE6=Dreams Come True/A Little Waltz
TTITLE7=矢野顕子/ゆうぐれ[Dusk]
TTITLE8=川村結花/夕日が沈んだら
TTITLE9=沢田知可子/少年時代
TTITLE10=AJI/Farewell
TTITLE11=The Eccentric Opera/あなたのとりこ
TTITLE12=Fayray/I`'ll Save You
EXTD=YEAR: 2003
EXTT0=
EXTT1=
EXTT2=
EXTT3=
EXTT4=
EXTT5=
EXTT6=
EXTT7=
EXTT8=
EXTT9=
EXTT10=
EXTT11=
EXTT12=
PLAYORDER=
